<?xml version="1.0" standalone="no"?>
<!DOCTYPE svg PUBLIC "-//W3C//DTD SVG 20010904//EN"
 "http://www.w3.org/TR/2001/REC-SVG-20010904/DTD/svg10.dtd">
<svg version="1.0" xmlns="http://www.w3.org/2000/svg"
 width="628.000000pt" height="205.000000pt" viewBox="0 0 628.000000 205.000000"
 preserveAspectRatio="xMidYMid meet">
<metadata>
Created by potrace 1.16, written by Peter Selinger 2001-2019
</metadata>
<g transform="translate(0.000000,205.000000) scale(0.100000,-0.100000)"
fill="#000000" stroke="none">
<path d="M314 1561 c-17 -4 -36 -11 -43 -15 -16 -11 -7 -71 25 -161 25 -72 73
-132 160 -202 45 -36 60 -36 18 1 -28 24 -29 24 -10 45 11 12 16 24 12 28 -4
4 -10 3 -14 -3 -11 -17 -38 -23 -53 -12 -11 8 -11 9 3 5 9 -3 24 1 35 8 17 14
16 16 -14 45 -34 32 -68 99 -78 154 l-7 33 54 -8 c83 -11 111 -20 145 -45 45
-34 55 -29 14 6 -18 17 -27 30 -20 30 10 1 8 5 -5 15 -15 11 -16 15 -5 15 8 0
19 -4 24 -9 6 -5 21 -12 35 -16 16 -4 7 6 -25 27 -68 46 -189 74 -251 59z"/>
<path d="M994 1063 c-32 -6 -74 -56 -84 -97 -12 -54 7 -112 45 -142 35 -26 45
-29 45 -14 0 6 -6 10 -14 10 -9 0 -12 7 -9 20 6 21 -12 29 -19 8 -3 -9 -6 -9
-12 0 -4 7 -2 12 3 12 6 0 11 7 11 16 0 21 19 7 30 -22 5 -13 15 -24 22 -24 9
0 9 3 -2 11 -10 7 -11 12 -3 15 7 3 2 14 -13 29 -26 26 -30 55 -14 86 9 16 22
19 78 20 47 0 61 3 47 9 -18 8 -17 9 7 9 14 1 28 -4 30 -11 3 -8 9 -8 23 -1
16 9 10 12 -36 21 -30 5 -44 10 -31 11 31 1 18 21 -16 22 l-27 1 30 8 c25 6
22 8 -20 7 -27 0 -60 -2 -71 -4z"/>
<path d="M328 1025 c-14 -8 -36 -35 -48 -60 -21 -43 -24 -45 -64 -45 -66 0
-100 -16 -124 -59 -30 -53 -29 -108 3 -152 24 -32 156 -118 183 -119 7 0 43
-15 80 -34 37 -18 99 -44 137 -57 39 -12 72 -25 75 -28 11 -13 73 -41 88 -41
13 1 12 3 -5 13 -12 7 -22 17 -23 22 -1 6 -4 12 -7 15 -4 3 -3 -1 1 -7 4 -8 1
-13 -8 -13 -9 0 -16 7 -16 16 0 12 7 15 25 12 13 -3 22 -1 19 4 -3 5 7 6 23 3
15 -3 21 -2 13 1 -8 4 -50 24 -94 45 -43 22 -83 39 -89 39 -6 0 -49 18 -96 41
-47 22 -97 46 -111 52 -55 24 -138 78 -144 93 -3 9 -3 26 0 39 13 53 125 38
319 -44 11 -5 43 -17 70 -26 28 -10 70 -29 95 -41 35 -19 61 -24 119 -24 68 0
73 1 68 19 -8 31 24 54 57 41 34 -12 36 -12 36 0 0 6 -8 10 -18 10 -9 0 -33 9
-52 20 -19 11 -75 40 -125 66 -49 25 -97 52 -106 60 -8 8 -21 14 -27 14 -7 0
-21 9 -32 20 -53 53 -161 121 -189 120 -3 -1 -18 -7 -33 -15z"/>
</g>
</svg>
